HIERARCHY
ROOT root
{
	OFFSET	0	13.1	24.9
	CHANNELS 6  Xposition Yposition Zposition Xrotation Yrotation Zrotation
	JOINT spine_1
	{
		OFFSET	0	9.99999	0
		CHANNELS 3  Xrotation Yrotation Zrotation
		JOINT spine_2
		{
			OFFSET	0	112	-10
			CHANNELS 3  Xrotation Yrotation Zrotation
			JOINT spine_3
			{
				OFFSET	0	206.5	19.3
				CHANNELS 3  Xrotation Yrotation Zrotation
				JOINT spine_4
				{
					OFFSET	0	110.4	14.6
					CHANNELS 3  Xrotation Yrotation Zrotation
					JOINT neck_1
					{
						OFFSET	0	71.8	-50.3
						CHANNELS 3  Xrotation Yrotation Zrotation
						JOINT neck_2
						{
							OFFSET	0	86.2	-25.8
							CHANNELS 3  Xrotation Yrotation Zrotation
							JOINT head_ee
							{
								OFFSET	0	179.8	-8.7
								CHANNELS 3  Xrotation Yrotation Zrotation
								End Site
								{
									OFFSET	1	0	0
								}
							}
						}
					}
					JOINT left_clavicle
					{
						OFFSET	-43.2	22.4	-70.8
						CHANNELS 3  Xrotation Yrotation Zrotation
						JOINT left_shoulder
						{
							OFFSET	-93.9	-5.79999	48.7
							CHANNELS 3  Xrotation Yrotation Zrotation
							JOINT left_elbow
							{
								OFFSET	-291.4	-30.8	15.2
								CHANNELS 3  Xrotation Yrotation Zrotation
								JOINT left_lowarm_twist
								{
									OFFSET	-110.7	-3.89999	13.6
									CHANNELS 3  Xrotation Yrotation Zrotation
									JOINT left_hand
									{
										OFFSET	-110.7	-3.89999	13.6
										CHANNELS 3  Xrotation Yrotation Zrotation
										JOINT left_ee
										{
											OFFSET	-80.8	-5.10001	12.1
											CHANNELS 3  Xrotation Yrotation Zrotation
											End Site
											{
												OFFSET	1	0	0
											}
										}
									}
								}
							}
						}
					}
					JOINT right_clavicle
					{
						OFFSET	43.2	22.4	-70.8
						CHANNELS 3  Xrotation Yrotation Zrotation
						JOINT right_shoulder
						{
							OFFSET	93.9	-5.79999	48.7
							CHANNELS 3  Xrotation Yrotation Zrotation
							JOINT right_elbow
							{
								OFFSET	291.4	-30.8	15.2
								CHANNELS 3  Xrotation Yrotation Zrotation
								JOINT right_lowarm_twist
								{
									OFFSET	110.7	-3.89999	13.6
									CHANNELS 3  Xrotation Yrotation Zrotation
									JOINT right_hand
									{
										OFFSET	110.7	-3.89999	13.6
										CHANNELS 3  Xrotation Yrotation Zrotation
										JOINT right_ee
										{
											OFFSET	80.8	-5.10001	12.1
											CHANNELS 3  Xrotation Yrotation Zrotation
											End Site
											{
												OFFSET	1	0	0
											}
										}
									}
								}
							}
						}
					}
				}
			}
		}
	}
	JOINT left_hip
	{
		OFFSET	-82.8	-127.5	0.300001
		CHANNELS 3  Xrotation Yrotation Zrotation
		JOINT left_knee
		{
			OFFSET	-28.2	-396.7	2.2
			CHANNELS 3  Xrotation Yrotation Zrotation
			JOINT left_ankle
			{
				OFFSET	-11.7	-411.3	35.4
				CHANNELS 3  Xrotation Yrotation Zrotation
				JOINT left_toes
				{
					OFFSET	0	-60	-88.6
					CHANNELS 3  Xrotation Yrotation Zrotation
					JOINT left_foot_ee
					{
						OFFSET	-22.5	-16.5	-42.2
						CHANNELS 3  Xrotation Yrotation Zrotation
						End Site
						{
							OFFSET	1	0	0
						}
					}
				}
			}
		}
	}
	JOINT right_hip
	{
		OFFSET	82.8	-127.5	0.300001
		CHANNELS 3  Xrotation Yrotation Zrotation
		JOINT right_knee
		{
			OFFSET	28.2	-396.7	2.2
			CHANNELS 3  Xrotation Yrotation Zrotation
			JOINT right_ankle
			{
				OFFSET	11.7	-411.3	35.4
				CHANNELS 3  Xrotation Yrotation Zrotation
				JOINT right_toes
				{
					OFFSET	0	-60	-88.6
					CHANNELS 3  Xrotation Yrotation Zrotation
					JOINT right_foot_ee
					{
						OFFSET	22.5	-16.5	-42.2
						CHANNELS 3  Xrotation Yrotation Zrotation
						End Site
						{
							OFFSET	1	0	0
						}
					}
				}
			}
		}
	}
}
MOTION
Frames: 7
Frame Time: 0.02
3574.42 741.953 -1474.73 166.88452913 78.6755385652 -165.581707561 -0.630028 0.000554126 -1.73738 -0.628355 0.11109 -1.73382 -0.630828 0.491549 -1.66641 -0.634635 0.222243 -1.72311 -14.7291 4.16402 6.80659 -14.6099 3.88158 7.7859 -0.0 0.0 -0.0 2.0966 10.8736 4.85772 -1.07191 -31.0708 65.4095 2.02639 -45.1039 0.841584 -83.8316 -8.30557 5.21179 0.80625 15.3186 11.3176 -0.0 0.0 -0.0 -1.10865 0.124633 2.15815 2.98032 10.5185 -74.8654 0.478283 13.3293 -0.0558867 54.1022 1.27789 6.53807 -0.789422 0.0476916 5.29978 0.0 0.0 0.0 -3.75999 22.4881 -5.65211 -2.15605 0.08275 0.320513 26.4186 4.45619 -3.49561 -17.0322 0.0 0.0 -0.0 0.0 -0.0 4.74463 28.2877 -12.23 -14.1304 -0.319374 -2.13949 26.0128 -15.7732 3.49208 28.8442 -0.0 -0.0 0.0 0.0 0.0 
3563.4766272 743.558 -1475.23358794 165.007284832 79.4054933881 -163.504273625 -0.713447 -0.0418001 -1.74779 -0.71175 0.0694836 -1.74691 -0.712887 0.456266 -1.68772 -0.716815 0.184039 -1.73858 -14.8515 4.29462 7.52431 -14.7025 3.71846 8.50968 -0.0 0.0 -0.0 2.30174 11.4638 5.24468 -1.09723 -30.0769 65.2032 2.05633 -45.5238 0.86287 -83.9833 -8.3246 5.20842 0.57536 16.6732 10.3588 -0.0 0.0 -0.0 -0.895618 0.552519 1.80341 4.02705 10.1902 -75.0411 0.3675 10.3178 -0.0331795 53.6991 1.24617 6.49732 -0.848491 0.239423 5.78018 0.0 0.0 0.0 -4.11102 22.8812 -5.88663 -2.49224 0.0945625 0.370757 28.2178 6.23941 -3.69457 -17.7007 0.0 0.0 -0.0 0.0 -0.0 3.80711 28.7835 -12.7437 -13.6974 -0.317471 -2.07308 26.7288 -14.986 3.5675 28.5444 -0.0 -0.0 0.0 0.0 0.0 
3563.48624553 743.558 -1475.41119181 163.601020478 80.3011358999 -162.07571172 -0.713447 -0.0418001 -1.74779 -0.71175 0.0694836 -1.74691 -0.712887 0.456266 -1.68772 -0.716815 0.184039 -1.73858 -14.8515 4.29462 7.52431 -14.7025 3.71846 8.50968 -0.0 0.0 -0.0 2.30174 11.4638 5.24468 -1.09723 -30.0769 65.2032 2.05633 -45.5238 0.86287 -83.9833 -8.3246 5.20842 0.57536 16.6732 10.3588 -0.0 0.0 -0.0 -0.895618 0.552519 1.80341 4.02705 10.1902 -75.0411 0.3675 10.3178 -0.0331795 53.6991 1.24617 6.49732 -0.848491 0.239423 5.78018 0.0 0.0 0.0 -4.11102 22.8812 -5.88663 -2.49224 0.0945625 0.370757 28.2178 6.23941 -3.69457 -17.7007 0.0 0.0 -0.0 0.0 -0.0 3.80711 28.7835 -12.7437 -13.6974 -0.317471 -2.07308 26.7288 -14.986 3.5675 28.5444 -0.0 -0.0 0.0 0.0 0.0 
3563.50330435 743.558 -1475.64474868 161.298804347 81.4691743013 -159.744182429 -0.713447 -0.0418001 -1.74779 -0.71175 0.0694836 -1.74691 -0.712887 0.456266 -1.68772 -0.716815 0.184039 -1.73858 -14.8515 4.29462 7.52431 -14.7025 3.71846 8.50968 -0.0 0.0 -0.0 2.30174 11.4638 5.24468 -1.09723 -30.0769 65.2032 2.05633 -45.5238 0.86287 -83.9833 -8.3246 5.20842 0.57536 16.6732 10.3588 -0.0 0.0 -0.0 -0.895618 0.552519 1.80341 4.02705 10.1902 -75.0411 0.3675 10.3178 -0.0331795 53.6991 1.24617 6.49732 -0.848491 0.239423 5.78018 0.0 0.0 0.0 -4.11102 22.8812 -5.88663 -2.49224 0.0945625 0.370757 28.2178 6.23941 -3.69457 -17.7007 0.0 0.0 -0.0 0.0 -0.0 3.80711 28.7835 -12.7437 -13.6974 -0.317471 -2.07308 26.7288 -14.986 3.5675 28.5444 -0.0 -0.0 0.0 0.0 0.0 
3563.52652606 743.558 -1475.88897999 158.101976633 82.6731022035 -156.516692667 -0.713447 -0.0418001 -1.74779 -0.71175 0.0694836 -1.74691 -0.712887 0.456266 -1.68772 -0.716815 0.184039 -1.73858 -14.8515 4.29462 7.52431 -14.7025 3.71846 8.50968 -0.0 0.0 -0.0 2.30174 11.4638 5.24468 -1.09723 -30.0769 65.2032 2.05633 -45.5238 0.86287 -83.9833 -8.3246 5.20842 0.57536 16.6732 10.3588 -0.0 0.0 -0.0 -0.895618 0.552519 1.80341 4.02705 10.1902 -75.0411 0.3675 10.3178 -0.0331795 53.6991 1.24617 6.49732 -0.848491 0.239423 5.78018 0.0 0.0 0.0 -4.11102 22.8812 -5.88663 -2.49224 0.0945625 0.370757 28.2178 6.23941 -3.69457 -17.7007 0.0 0.0 -0.0 0.0 -0.0 3.80711 28.7835 -12.7437 -13.6974 -0.317471 -2.07308 26.7288 -14.986 3.5675 28.5444 -0.0 -0.0 0.0 0.0 0.0 
3563.56206427 743.558 -1476.18473046 152.48727736 84.0902010546 -150.86481786 -0.713447 -0.0418001 -1.74779 -0.71175 0.0694836 -1.74691 -0.712887 0.456266 -1.68772 -0.716815 0.184039 -1.73858 -14.8515 4.29462 7.52431 -14.7025 3.71846 8.50968 -0.0 0.0 -0.0 2.30174 11.4638 5.24468 -1.09723 -30.0769 65.2032 2.05633 -45.5238 0.86287 -83.9833 -8.3246 5.20842 0.57536 16.6732 10.3588 -0.0 0.0 -0.0 -0.895618 0.552519 1.80341 4.02705 10.1902 -75.0411 0.3675 10.3178 -0.0331795 53.6991 1.24617 6.49732 -0.848491 0.239423 5.78018 0.0 0.0 0.0 -4.11102 22.8812 -5.88663 -2.49224 0.0945625 0.370757 28.2178 6.23941 -3.69457 -17.7007 0.0 0.0 -0.0 0.0 -0.0 3.80711 28.7835 -12.7437 -13.6974 -0.317471 -2.07308 26.7288 -14.986 3.5675 28.5444 -0.0 -0.0 0.0 0.0 0.0 
3563.60920988 743.558 -1476.50139097 142.601577047 85.5084505163 -140.939213324 -0.713447 -0.0418001 -1.74779 -0.71175 0.0694836 -1.74691 -0.712887 0.456266 -1.68772 -0.716815 0.184039 -1.73858 -14.8515 4.29462 7.52431 -14.7025 3.71846 8.50968 -0.0 0.0 -0.0 2.30174 11.4638 5.24468 -1.09723 -30.0769 65.2032 2.05633 -45.5238 0.86287 -83.9833 -8.3246 5.20842 0.57536 16.6732 10.3588 -0.0 0.0 -0.0 -0.895618 0.552519 1.80341 4.02705 10.1902 -75.0411 0.3675 10.3178 -0.0331795 53.6991 1.24617 6.49732 -0.848491 0.239423 5.78018 0.0 0.0 0.0 -4.11102 22.8812 -5.88663 -2.49224 0.0945625 0.370757 28.2178 6.23941 -3.69457 -17.7007 0.0 0.0 -0.0 0.0 -0.0 3.80711 28.7835 -12.7437 -13.6974 -0.317471 -2.07308 26.7288 -14.986 3.5675 28.5444 -0.0 -0.0 0.0 0.0 0.0 
